# xmcd CD database file
#
# Track frame offsets:
#	150
#	21965
#	46039
#	64092
#	87512
#	111423
#	130709
#	153361
#	173432
#	192465
#	218392
#	238571
#
# Disc length: 3584 seconds
#
# Revision: 0
# Processed by: cddbd v1.5.2PL0 Copyright (c) Steve Scherf et al.
# Submitted via: CDex 1.51
#
DISCID=960dfe0c
DTITLE=Guido Negraszus - 12 Enigma
DYEAR=2009
DGENRE=New Age
TTITLE0=Twilight City
TTITLE1=The Enigma Journey
TTITLE2=Snowboard
TTITLE3=Cycle Of 12
TTITLE4=The Great Warrior
TTITLE5=Skydiving
TTITLE6=Last Summer
TTITLE7=Enigma Twilight
TTITLE8=Race To The Sun
TTITLE9=The Trinity Path
TTITLE10=Surfing
TTITLE11=Lysithea
EXTD=YEAR: 2009
EXTT0=
EXTT1=
EXTT2=
EXTT3=
EXTT4=
EXTT5=
EXTT6=
EXTT7=
EXTT8=
EXTT9=
EXTT10=
EXTT11=
PLAYORDER=
